<svg width="1400" height="320" viewBox="0 0 1400 320" xmlns="http://www.w3.org/2000/svg">
  <g fill="#CBA05C">
    <rect x="0" y="290" width="1400" height="30"/>

    <path d="M60 290 V250 a26 26 0 0 1 52 0 V290 Z"/>
    <rect x="50" y="284" width="72" height="8"/>

    <path d="M160 290 V262 a18 18 0 0 1 36 0 V290 Z"/>

    <rect x="210" y="150" width="14" height="140"/>
    <path d="M210 150 h14 l-7 -22 Z"/>
    <circle cx="217" cy="118" r="5"/>
    <rect x="203" y="188" width="28" height="6"/>

    <path d="M270 290 V232 a40 40 0 0 1 80 0 V290 Z"/>
    <rect x="256" y="284" width="108" height="8"/>
    <rect x="304" y="176" width="10" height="30"/>
    <circle cx="309" cy="170" r="6"/>

    <path d="M470 290 V200 a90 90 0 0 1 180 0 V290 Z"/>
    <rect x="450" y="282" width="220" height="10"/>
    <rect x="552" y="96" width="16" height="40"/>
    <circle cx="560" cy="88" r="9"/>

    <path d="M535 290 V240 a25 25 0 0 1 50 0 V290 Z" fill="#0F2B20" fill-opacity="0.5"/>

    <rect x="700" y="130" width="16" height="160"/>
    <path d="M700 130 h16 l-8 -26 Z"/>
    <circle cx="708" cy="94" r="6"/>
    <rect x="692" y="170" width="32" height="7"/>

    <rect x="760" y="160" width="14" height="130"/>
    <path d="M760 160 h14 l-7 -22 Z"/>
    <circle cx="767" cy="128" r="5"/>

    <path d="M850 290 V238 a36 36 0 0 1 72 0 V290 Z"/>
    <rect x="838" y="284" width="96" height="8"/>
    <rect x="880" y="188" width="9" height="26"/>
    <circle cx="884.5" cy="182" r="5.5"/>

    <path d="M980 290 V258 a20 20 0 0 1 40 0 V290 Z"/>
    <path d="M1060 290 V246 a28 28 0 0 1 56 0 V290 Z"/>
    <rect x="1050" y="284" width="76" height="8"/>

    <path d="M1180 290 V264 a16 16 0 0 1 32 0 V290 Z"/>
  </g>

  <path d="M1240 60 a40 40 0 1 0 10 78 a30 30 0 1 1 -10 -78 Z" fill="#F3EEDF"/>

  <g fill="#F3EEDF">
    <circle cx="1300" cy="45" r="2.6"/>
    <circle cx="1335" cy="85" r="1.8"/>
    <circle cx="1150" cy="35" r="1.6"/>
    <circle cx="90" cy="50" r="2.2"/>
    <circle cx="150" cy="30" r="1.6"/>
    <circle cx="380" cy="45" r="1.8"/>
    <circle cx="620" cy="35" r="2"/>
    <circle cx="960" cy="40" r="1.6"/>
  </g>
</svg>
